<svg xmlns="http://www.w3.org/2000/svg" viewBox="0 0 51.4 50"><defs><style>.cls-1{fill:#0a0a0a;}.cls-2{fill:#ffb700;}</style></defs><title>Asset 2</title><g id="Layer_2" data-name="Layer 2"><g id="Layer_1-2" data-name="Layer 1"><rect class="cls-1" x="0.7" width="50" height="50"/><path class="cls-2" d="M51.4,16l-9,2.68,2.38.48a27.72,27.72,0,0,1-8.88,6.9,41.69,41.69,0,0,1-5.51,2.35,55.86,55.86,0,0,1-5.83,1.71,83.2,83.2,0,0,1-12.13,1.93A95.3,95.3,0,0,1,0,32.39a95.88,95.88,0,0,0,12.43.89A85,85,0,0,0,25,32.51a58.51,58.51,0,0,0,6.24-1.19,44.92,44.92,0,0,0,6.13-1.95,31.88,31.88,0,0,0,10.85-6.89l.27,2.24Z"/><polygon class="cls-2" points="29.9 9.57 26.21 9.57 19.32 40.43 23.74 40.43 27.99 18.45 28.08 18.45 32.37 40.43 36.79 40.43 29.9 9.57"/></g></g></svg>